<?xml version="1.0" encoding="UTF-8" ?>

<svg width="140" height="90" xmlns="http://www.w3.org/2000/svg" version="1.1">

<rect x="8" y="16" width="124" height="60" fill="#a0a0a0" />
<rect x="16" y="8" width="108" height="76" fill="#a0a0a0" />
<circle cx="16" cy="16" r="8" fill="#a0a0a0" />
<circle cx="16" cy="76" r="8" fill="#a0a0a0" />
<circle cx="124" cy="16" r="8" fill="#a0a0a0" />
<circle cx="124" cy="76" r="8" fill="#a0a0a0" />

<rect x="10" y="16" width="120" height="60" fill="#000000" />
<rect x="16" y="10" width="108" height="72" fill="#000000" />
<circle cx="16" cy="16" r="6" fill="#000000" />
<circle cx="16" cy="76" r="6" fill="#000000" />
<circle cx="124" cy="16" r="6" fill="#000000" />
<circle cx="124" cy="76" r="6" fill="#000000" />

<rect x="15" y="37" width="110" height="15" fill="#a9a9a9" />

<rect x="48" y="44" width="44" height="33" fill="#6e6e6e" />
<rect x="52" y="58" width="36" height="3" fill="#f1f1f1" />
<rect x="52" y="64" width="36" height="3" fill="#f1f1f1" />
<rect x="52" y="70" width="36" height="3" fill="#f1f1f1" />

<text x="44" y="29" fill="#ffffff" style="font-family: sans-serif; font-weight: bold; font-size: 12pt">9 Days</text>

</svg>